<svg width="1059" height="800" viewBox="0 0 1059 800" fill="none" xmlns="http://www.w3.org/2000/svg">
<rect x="129" width="800" height="800" fill="url(#paint0_linear_63_1234)" fill-opacity="0.4"/>
<path d="M534.626 308.9V458C534.626 465.4 536.526 470.8 540.326 474.2C544.326 477.6 549.626 479.3 556.226 479.3C561.626 479.3 566.326 478.5 570.326 476.9C574.326 475.1 578.026 472.7 581.426 469.7L588.626 493.1C584.026 497.1 578.326 500.3 571.526 502.7C564.926 504.9 557.526 506 549.326 506C540.726 506 532.826 504.6 525.626 501.8C518.426 499 512.826 494.5 508.826 488.3C504.826 481.9 502.726 473.6 502.526 463.4V317.9L534.626 308.9ZM586.226 353V378.2H473.726V353H586.226Z" fill="#3475ED"/>
<defs>
<linearGradient id="paint0_linear_63_1234" x1="529" y1="0" x2="529" y2="800" gradientUnits="userSpaceOnUse">
<stop stop-color="#F3F3FF"/>
<stop offset="0.84" stop-color="#ACC9FE"/>
</linearGradient>
</defs>
</svg>
